<svg xmlns="http://www.w3.org/2000/svg" viewBox="0 0 300 110" width="100%" height="100%">
  <rect width="300" height="110" rx="16" fill="#fefce8" stroke="#facc15" stroke-width="3"/>
  <g transform="translate(50,50)">
            <circle cx="0" cy="0" r="20" fill="#e74c3c" />
            <path d="M 0,-20 Q 10,-30 15,-20 Q 5,-10 0,-20 Z" fill="#2ecc71" />
        </g><g transform="translate(110,50)">
            <circle cx="0" cy="0" r="20" fill="#e74c3c" />
            <path d="M 0,-20 Q 10,-30 15,-20 Q 5,-10 0,-20 Z" fill="#2ecc71" />
        </g><g transform="translate(170,50)">
            <circle cx="0" cy="0" r="20" fill="#e74c3c" />
            <path d="M 0,-20 Q 10,-30 15,-20 Q 5,-10 0,-20 Z" fill="#2ecc71" />
        </g><g transform="translate(230,50)">
            <circle cx="0" cy="0" r="20" fill="#e74c3c" />
            <path d="M 0,-20 Q 10,-30 15,-20 Q 5,-10 0,-20 Z" fill="#2ecc71" />
        </g>
</svg>